<?xml version="1.0" standalone="no"?>
<!DOCTYPE svg PUBLIC "-//W3C//DTD SVG 20010904//EN"
 "http://www.w3.org/TR/2001/REC-SVG-20010904/DTD/svg10.dtd">
<svg version="1.0" xmlns="http://www.w3.org/2000/svg"
 width="256.000000pt" height="256.000000pt" viewBox="0 0 256.000000 256.000000"
 preserveAspectRatio="xMidYMid meet">
<rect width="100%" height="100%" fill="white"/>
<g transform="translate(0.000000,256.000000) scale(0.100000,-0.100000)"
fill="#000000" stroke="none">
<path d="M1164 2460 c-324 -46 -597 -203 -786 -454 -72 -95 -146 -245 -185
-371 l-28 -90 -3 -772 -3 -773 141 0 140 0 0 718 c0 452 4 741 11 782 49 307
300 577 615 661 113 31 316 31 429 1 296 -80 531 -311 611 -602 18 -64 22
-346 24 -1472 l0 -88 140 0 141 0 -3 758 -4 757 -26 98 c-56 205 -168 389
-329 542 -94 90 -157 134 -274 193 -181 90 -435 137 -611 112z"/>
<path d="M898 1700 c-77 -41 -119 -133 -97 -213 52 -195 316 -195 368 1 41
151 -132 285 -271 212z"/>
<path d="M1505 1706 c-62 -28 -115 -110 -115 -178 1 -68 60 -153 123 -177 76
-29 180 3 223 68 30 46 40 116 24 166 -14 44 -62 100 -101 121 -35 17 -114 18
-154 0z"/>
<path d="M1120 1165 c-16 -20 -7 -76 20 -119 59 -96 222 -94 287 4 25 36 31
98 11 118 -8 8 -58 12 -159 12 -118 0 -149 -3 -159 -15z"/>
</g>
</svg>
